<svg width="12" height="12" viewBox="0 0 12 12" fill="none" xmlns="http://www.w3.org/2000/svg">
<path d="M4.83333 0C2.17185 0 0 2.17185 0 4.83333C0 7.49481 2.17185 9.66667 4.83333 9.66667C5.92439 9.66667 6.92964 9.29767 7.74023 8.68359L10.862 11.8047C10.9234 11.8687 10.997 11.9198 11.0784 11.9549C11.1598 11.9901 11.2474 12.0087 11.3361 12.0096C11.4248 12.0105 11.5128 11.9937 11.5949 11.9602C11.6771 11.9267 11.7517 11.8771 11.8144 11.8144C11.8771 11.7517 11.9267 11.6771 11.9602 11.5949C11.9937 11.5128 12.0105 11.4248 12.0096 11.3361C12.0087 11.2474 11.9901 11.1598 11.9549 11.0784C11.9198 10.997 11.8687 10.9234 11.8047 10.862L8.68359 7.74023C9.29767 6.92964 9.66667 5.92439 9.66667 4.83333C9.66667 2.17185 7.49481 0 4.83333 0ZM4.83333 1.33333C6.77423 1.33333 8.33333 2.89244 8.33333 4.83333C8.33333 5.76524 7.97135 6.60687 7.38281 7.23242C7.32552 7.2739 7.2752 7.32422 7.23372 7.38151C6.60803 7.9708 5.7659 8.33333 4.83333 8.33333C2.89244 8.33333 1.33333 6.77423 1.33333 4.83333C1.33333 2.89244 2.89244 1.33333 4.83333 1.33333Z" fill="white"/>
</svg>
